<svg xmlns="http://www.w3.org/2000/svg" width="124" height="40" viewBox="0 0 124 40">
    <g fill="none" fill-rule="evenodd">
        <path fill="#000" d="M0 0H123.509V40H0z"/>
        <g fill="#FFF" fill-rule="nonzero">
            <path d="M15.704 12.026c.022-1.757.948-3.38 2.453-4.3-.953-1.355-2.493-2.184-4.155-2.235-1.749-.183-3.443 1.04-4.334 1.04-.908 0-2.28-1.022-3.757-.992-1.944.062-3.712 1.135-4.657 2.825C-.76 11.832.742 16.93 2.67 19.732c.965 1.373 2.093 2.906 3.569 2.852 1.444-.06 1.983-.916 3.726-.916 1.727 0 2.233.916 3.739.881 1.55-.025 2.526-1.378 3.457-2.764.693-.978 1.227-2.06 1.581-3.203-1.84-.774-3.037-2.568-3.04-4.556zM12.86 3.647c.845-1.009 1.26-2.306 1.16-3.615-1.29.135-2.483.748-3.34 1.719-.845.957-1.273 2.21-1.19 3.481 1.308.013 2.55-.57 3.37-1.585z" transform="translate(9.37 8.286)"/>
            <g>
                <path d="M8.644 9.787H3.716l-1.184 3.477H.445L5.113.402H7.28l4.668 12.862H9.826L8.644 9.787zM4.226 8.183h3.906L6.207 2.542h-.054L4.226 8.183zM22.03 8.576c0 2.914-1.568 4.786-3.934 4.786-1.223.064-2.374-.574-2.965-1.64h-.045v4.644H13.15V3.886h1.873v1.56h.035c.618-1.06 1.77-1.697 3.002-1.657 2.392 0 3.97 1.88 3.97 4.787zm-1.989 0c0-1.899-.986-3.147-2.49-3.147-1.479 0-2.473 1.275-2.473 3.147 0 1.89.994 3.154 2.472 3.154 1.505 0 2.491-1.239 2.491-3.154zM32.405 8.576c0 2.914-1.568 4.786-3.934 4.786-1.223.064-2.375-.574-2.966-1.64h-.044v4.644h-1.935V3.886h1.873v1.56h.035c.617-1.06 1.77-1.697 3.002-1.657 2.392 0 3.969 1.88 3.969 4.787zm-1.989 0c0-1.899-.986-3.147-2.49-3.147-1.48 0-2.474 1.275-2.474 3.147 0 1.89.995 3.154 2.473 3.154 1.505 0 2.491-1.239 2.491-3.154zM39.262 9.68c.143 1.276 1.389 2.113 3.09 2.113 1.632 0 2.805-.837 2.805-1.987 0-.999-.708-1.596-2.383-2.006l-1.676-.402c-2.374-.57-3.476-1.675-3.476-3.467 0-2.219 1.944-3.743 4.704-3.743 2.732 0 4.605 1.524 4.668 3.743h-1.953c-.117-1.283-1.184-2.058-2.742-2.058-1.559 0-2.625.784-2.625 1.925 0 .909.68 1.444 2.347 1.854L43.446 6c2.652.624 3.754 1.684 3.754 3.565 0 2.406-1.926 3.913-4.99 3.913-2.868 0-4.804-1.471-4.929-3.798h1.98zM51.376 1.668v2.219h1.793V5.41h-1.793v5.17c0 .803.36 1.177 1.147 1.177.213-.004.425-.019.637-.045v1.515c-.355.066-.715.096-1.075.09-1.909 0-2.653-.714-2.653-2.532V5.41h-1.37V3.887h1.37v-2.22h1.944zM54.207 8.576c0-2.95 1.747-4.805 4.47-4.805 2.733 0 4.472 1.854 4.472 4.805 0 2.958-1.73 4.804-4.472 4.804-2.74 0-4.47-1.846-4.47-4.804zm6.97 0c0-2.024-.932-3.219-2.5-3.219-1.567 0-2.499 1.204-2.499 3.219 0 2.032.932 3.217 2.5 3.217 1.567 0 2.5-1.185 2.5-3.217zM64.744 3.887h1.846v1.596h.044c.258-1.028 1.204-1.735 2.268-1.694.223-.001.445.023.663.071v1.8c-.282-.085-.575-.124-.87-.116-.569-.022-1.119.203-1.507.618-.387.415-.573.977-.509 1.54v5.562h-1.935V3.887zM78.485 10.51c-.26 1.702-1.926 2.87-4.058 2.87-2.742 0-4.444-1.828-4.444-4.76 0-2.941 1.71-4.849 4.362-4.849 2.608 0 4.248 1.783 4.248 4.626v.66h-6.657v.116c-.062.698.18 1.389.665 1.897.485.508 1.166.784 1.87.759.94.087 1.825-.45 2.177-1.32h1.837zm-6.54-2.799h4.712c.036-.627-.194-1.24-.633-1.692-.439-.452-1.047-.701-1.679-.688-.636-.004-1.248.246-1.698.692-.451.447-.704 1.055-.702 1.688z" transform="translate(9.37 8.286) translate(25.315 9.321)"/>
            </g>
        </g>
        <g fill="#FFF" fill-rule="nonzero">
            <path d="M2.245.733c.822-.057 1.628.244 2.195.82s.836 1.365.732 2.152c0 1.911-1.074 3.01-2.927 3.01H-.002V.733h2.247zM.964 5.869h1.173c.588.033 1.16-.19 1.558-.607.398-.417.58-.985.494-1.545.08-.558-.105-1.12-.502-1.534-.397-.414-.965-.636-1.55-.605H.964v4.29zM6.264 4.455c-.08-.809.323-1.592 1.04-2.02.72-.429 1.628-.429 2.346 0 .719.428 1.122 1.211 1.042 2.02.082.81-.322 1.595-1.04 2.025-.72.43-1.63.43-2.348 0-.72-.43-1.122-1.215-1.04-2.025zm3.475 0c0-.978-.458-1.55-1.26-1.55-.805 0-1.258.572-1.258 1.55 0 .987.453 1.555 1.258 1.555.802 0 1.26-.572 1.26-1.555zM16.578 6.715L15.616 6.715 14.646 3.39 14.573 3.39 13.607 6.715 12.655 6.715 11.361 2.2 12.3 2.2 13.141 5.645 13.211 5.645 14.176 2.2 15.065 2.2 16.03 5.645 16.103 5.645 16.94 2.2 17.867 2.2zM18.955 2.2h.892v.717h.07c.24-.528.803-.85 1.4-.804.463-.033.916.137 1.233.464.316.327.46.774.392 1.215v2.922h-.926V4.016c0-.726-.328-1.086-1.013-1.086-.314-.014-.619.104-.834.324-.216.22-.32.52-.287.82v2.64h-.927V2.2zM24.419.438L25.345.438 25.345 6.715 24.419 6.715zM26.633 4.455c-.08-.809.323-1.592 1.042-2.02.718-.429 1.627-.429 2.345 0 .718.428 1.122 1.211 1.042 2.02.082.81-.322 1.595-1.04 2.025-.72.43-1.63.43-2.349 0-.719-.43-1.122-1.214-1.04-2.025zm3.475 0c0-.978-.457-1.55-1.26-1.55-.805 0-1.258.572-1.258 1.55 0 .987.453 1.555 1.259 1.555.802 0 1.26-.572 1.26-1.555zM32.037 5.438c0-.813.63-1.281 1.746-1.348l1.272-.07v-.39c0-.477-.328-.746-.961-.746-.517 0-.876.183-.979.502h-.897c.095-.775.853-1.273 1.918-1.273 1.178 0 1.841.564 1.841 1.517v3.085h-.892V6.08h-.073c-.303.463-.842.734-1.41.709-.399.04-.796-.084-1.094-.342-.298-.257-.47-.624-.471-1.01zm3.018-.386v-.377l-1.147.07c-.646.042-.94.253-.94.651 0 .407.367.643.871.643.299.03.596-.06.826-.246.229-.186.37-.453.39-.74zM37.195 4.455c0-1.426.763-2.33 1.949-2.33.599-.026 1.16.282 1.44.792h.069V.438h.926v6.277h-.888V6h-.073c-.3.506-.869.81-1.474.788-1.194 0-1.949-.904-1.949-2.334zm.957 0c0 .958.47 1.534 1.255 1.534.78 0 1.263-.584 1.263-1.53 0-.94-.488-1.533-1.263-1.533-.78 0-1.255.58-1.255 1.53zM45.413 4.455c-.08-.809.323-1.592 1.041-2.02.718-.429 1.627-.429 2.345 0 .719.428 1.122 1.211 1.042 2.02.082.81-.321 1.595-1.04 2.025-.72.43-1.63.43-2.348 0-.72-.43-1.122-1.215-1.04-2.025zm3.475 0c0-.978-.457-1.55-1.26-1.55-.805 0-1.258.572-1.258 1.55 0 .987.453 1.555 1.258 1.555.803 0 1.26-.572 1.26-1.555zM51.084 2.2h.892v.717h.07c.24-.528.802-.85 1.4-.804.463-.033.916.137 1.232.464.317.327.461.774.393 1.215v2.922h-.926V4.016c0-.726-.328-1.086-1.014-1.086-.313-.014-.618.104-.833.324-.216.22-.32.52-.288.82v2.64h-.926V2.2zM60.307 1.076v1.145h1.017v.75h-1.017v2.322c0 .472.202.68.663.68.118 0 .236-.008.354-.021v.742c-.167.029-.335.044-.504.045-1.03 0-1.441-.348-1.441-1.218V2.97h-.745v-.75h.745V1.076h.928zM62.59.438h.918v2.488h.073c.252-.533.825-.856 1.431-.809.46-.024.908.15 1.22.476.313.325.459.768.397 1.207v2.915h-.927V4.02c0-.721-.35-1.086-1.004-1.086-.322-.026-.64.087-.868.307-.228.221-.343.527-.314.837v2.637h-.927V.438zM72.032 5.496c-.26.851-1.117 1.401-2.035 1.306-.626.016-1.227-.234-1.645-.683-.417-.448-.609-1.05-.523-1.647-.084-.599.107-1.202.522-1.655.416-.452 1.015-.709 1.642-.704 1.307 0 2.095.858 2.095 2.276v.31h-3.315v.05c-.03.336.09.667.327.913.238.246.573.385.923.38.453.053.894-.163 1.117-.546h.892zm-3.26-1.455h2.372c.024-.307-.089-.608-.309-.83-.22-.224-.527-.347-.847-.34-.323-.003-.635.118-.864.339-.229.22-.356.52-.351.83z" transform="translate(36.491 7.72)"/>
        </g>
    </g>
</svg>
