<?xml version="1.0" encoding="UTF-8"?>
<svg width="24px" height="24px" viewBox="0 0 24 24" version="1.1" xmlns="http://www.w3.org/2000/svg" xmlns:xlink="http://www.w3.org/1999/xlink">
    <!-- Generator: Sketch 63.1 (92452) - https://sketch.com -->
    <title>Icon/exercise/circuit</title>
    <desc>Created with Sketch.</desc>
    <g id="Icon/exercise/circuit" stroke="none" stroke-width="1" fill="none" fill-rule="evenodd">
        <g id="Group" transform="translate(2.000000, 6.000000)" fill="#4A4A4A" fill-rule="nonzero">
            <path d="M12.7183403,3.00384087 C10.8917216,3.11249019 9.80803407,3.44136997 8.15393506,4.43878802 C7.4646272,4.9356431 7.28020073,5.498895 7.3142935,6.04110686 C6.17012983,6.69990118 3.61831162,8.04473837 0.885322034,8.70405007 C0.264371038,8.85495191 -0.117330939,9.48399701 0.0325744603,10.1089893 C0.160465181,10.6420608 0.633994924,10.9999138 1.15583704,11 C1.24578028,11 1.33709408,10.9893075 1.42832222,10.9672327 C5.01671485,10.0883804 8.09594308,8.29368329 8.957428,7.76707899 C9.0382056,7.73163861 9.12437979,7.6902484 9.21732113,7.64170112 C10.2098662,7.01748488 11.4951123,6.71395661 12.5811983,6.49260517 L12.3312418,4.91900078 C12.2915811,4.66884865 12.350858,4.41800668 12.4983649,4.21295263 C12.6459574,4.0076399 12.8643054,3.87251808 13.1128913,3.83285246 C13.1622316,3.8248331 13.2129425,3.82052162 13.2629681,3.82052162 C13.7277605,3.82052162 14.1183711,4.15647223 14.1918676,4.61935285 L14.4005359,5.93211262 C14.8093922,5.61953024 15.0661159,5.15699454 14.9850813,4.66686537 C14.8496525,3.84966723 14.0469305,2.93321881 12.7183403,3.00384087 Z" id="Shape"></path>
            <path d="M13.5415749,4.01001287 C13.1908539,4.07825117 12.9521807,4.47984751 13.0081331,4.90720729 L13.2157931,6.48861257 L13.7215802,10.3403341 C13.7723876,10.7254801 14.045647,11 14.3562081,11 C14.3898653,11 14.4240227,10.9967796 14.4585374,10.9900776 C14.8089726,10.9217523 15.0479316,10.5198948 14.9918363,10.0927961 L14.4628964,6.0657788 L14.2782462,4.65966937 C14.2220794,4.23248366 13.8924388,3.94142641 13.5415749,4.01001287 Z" id="Shape"></path>
            <circle id="Oval" transform="translate(18.000000, 3.000000) rotate(-82.692346) translate(-18.000000, -3.000000) " cx="18" cy="3" r="2"></circle>
        </g>
    </g>
</svg>