<?xml version="1.0" encoding="UTF-8"?>
<svg width="24px" height="24px" viewBox="0 0 24 24" version="1.1" xmlns="http://www.w3.org/2000/svg" xmlns:xlink="http://www.w3.org/1999/xlink">
    <!-- Generator: Sketch 63.1 (92452) - https://sketch.com -->
    <title>Icon/exercise/cool-down</title>
    <desc>Created with Sketch.</desc>
    <g id="Icon/exercise/cool-down" stroke="none" stroke-width="1" fill="none" fill-rule="evenodd">
        <g id="noun_730503_cc" transform="translate(12.500000, 12.500000) scale(-1, 1) translate(-12.500000, -12.500000) translate(7.000000, 5.000000)" fill="#4A4A4A" fill-rule="nonzero">
            <path d="M2.13868519,7.51183099 C1.04112963,7.51183099 0.151555556,8.43443662 0.151555556,9.57253521 C0.151555556,10.7106338 1.04112963,11.6330282 2.13868519,11.6330282 C3.23562963,11.6328169 4.12540741,10.7104225 4.12540741,9.57253521 C4.12540741,8.43443662 3.23562963,7.51183099 2.13868519,7.51183099 Z" id="Shape"></path>
            <path d="M6.43092593,6.90190141 C6.72222222,6.10457746 7.12392593,5.35542254 7.623,4.67788732 C7.53275926,5.43633803 7.49140741,6.20049296 7.49935185,6.96485915 C7.44761111,7.19471831 7.39912963,7.42521127 7.3537037,7.65633803 C7.95137037,8.37950704 8.50157407,9.14323944 9.00085185,9.94246479 C9.08966667,9.09338028 9.2287963,8.25147887 9.41701852,7.42035211 C10.2192037,5.67823944 10.7021852,3.79711268 10.842537,1.87225352 C10.9089444,0.966549296 10.2544444,0.176830986 9.38157407,0.107957746 C9.11431481,0.0870422535 8.84644444,0.136690141 8.60301852,0.251830986 C6.31053704,1.33732394 4.48861111,3.26788732 3.49188889,5.66873239 C3.14559259,6.5028169 3.51694444,7.47042254 4.32116667,7.82978873 C4.56194444,7.93753521 4.82472222,7.98126761 5.08607407,7.95760563 C6.18811111,9.12232394 7.14327778,10.4269014 7.93018519,11.8396479 C8.1617963,12.2562676 8.67492593,12.398662 9.07642593,12.1584507 C9.47751852,11.9178169 9.61522222,11.3856338 9.3832037,10.9694366 C8.56166667,9.49394366 7.57105556,8.12683099 6.43275926,6.89788732" id="Shape"></path>
            <path d="M7.76498148,11.9387324 C7.99048148,12.3441549 8.44494444,12.5501408 8.88535185,12.4457746 C8.89085185,12.9027465 8.91081481,13.3592958 8.94544444,13.8145775 C8.98801852,14.3761268 8.58346296,14.8673239 8.04181481,14.9116901 C7.49996296,14.9558451 7.02655556,14.5362676 6.98398148,13.974507 C6.89964815,12.8617606 6.89414815,11.7439437 6.96727778,10.6305634 C7.25022222,11.0554225 7.51585185,11.4916901 7.76498148,11.9387324 Z" id="Shape"></path>
        </g>
    </g>
</svg>