<svg xmlns="http://www.w3.org/2000/svg" width="136" height="40" viewBox="0 0 136 40">
    <defs>
        <linearGradient id="prefix__a" x1="61.045%" x2="26.513%" y1="4.946%" y2="71.879%">
            <stop offset="0%" stop-color="#00A0FF"/>
            <stop offset="1%" stop-color="#00A1FF"/>
            <stop offset="26%" stop-color="#00BEFF"/>
            <stop offset="51%" stop-color="#00D2FF"/>
            <stop offset="76%" stop-color="#00DFFF"/>
            <stop offset="100%" stop-color="#00E3FF"/>
        </linearGradient>
        <linearGradient id="prefix__b" x1="107.685%" x2="-130.64%" y1="50%" y2="50%">
            <stop offset="0%" stop-color="#FFE000"/>
            <stop offset="41%" stop-color="#FFBD00"/>
            <stop offset="78%" stop-color="orange"/>
            <stop offset="100%" stop-color="#FF9C00"/>
        </linearGradient>
        <linearGradient id="prefix__c" x1="86.271%" x2="-50.18%" y1="30.873%" y2="136.109%">
            <stop offset="0%" stop-color="#FF3A44"/>
            <stop offset="100%" stop-color="#C31162"/>
        </linearGradient>
        <linearGradient id="prefix__d" x1="-18.825%" x2="42.086%" y1="-11.91%" y2="35.079%">
            <stop offset="0%" stop-color="#32A071"/>
            <stop offset="7%" stop-color="#2DA771"/>
            <stop offset="48%" stop-color="#15CF74"/>
            <stop offset="80%" stop-color="#06E775"/>
            <stop offset="100%" stop-color="#00F076"/>
        </linearGradient>
    </defs>
    <g fill="none" fill-rule="evenodd" transform="translate(.544)">
        <rect width="135" height="40" fill="#000" fill-rule="nonzero" rx="3.509"/>
        <path fill="#000" d="M0 0H135.439V40H0z"/>
        <path fill="#FFF" fill-rule="nonzero" stroke="#FFF" stroke-width=".5" d="M47.42 10.24c.033.741-.238 1.463-.75 2-.575.593-1.375.913-2.2.88-.83.018-1.63-.307-2.21-.9-1.212-1.24-1.212-3.22 0-4.46.91-.89 2.267-1.146 3.44-.65.36.148.682.377.94.67l-.53.53c-.403-.485-1.01-.752-1.64-.72-1.078.007-2.02.733-2.3 1.774-.282 1.041.166 2.142 1.094 2.691.928.55 2.109.412 2.886-.335.305-.335.483-.767.5-1.22h-2.18v-.72h2.91c.023.152.036.306.04.46h0zM52 7.74L49.3 7.74 49.3 9.64 51.76 9.64 51.76 10.36 49.3 10.36 49.3 12.26 52 12.26 52 13 48.52 13 48.52 7 52 7zM55.28 13L54.51 13 54.51 7.74 52.83 7.74 52.83 7 57 7 57 7.74 55.28 7.74zM59.94 13L59.94 7 60.71 7 60.71 13zM64.13 13L63.36 13 63.36 7.74 61.68 7.74 61.68 7 65.8 7 65.8 7.74 64.13 7.74zM73.61 12.22c-.583.584-1.375.912-2.2.912-.825 0-1.617-.328-2.2-.912-1.173-1.247-1.173-3.193 0-4.44.571-.601 1.37-.932 2.2-.91.827-.013 1.624.316 2.2.91.58.59.898 1.392.88 2.22.027.83-.292 1.634-.88 2.22h0zm-3.83-.5c.43.436 1.017.682 1.63.682s1.2-.246 1.63-.682c.895-.972.895-2.468 0-3.44-.43-.436-1.017-.682-1.63-.682s-1.2.246-1.63.682c-.895.972-.895 2.468 0 3.44h0zM75.58 13L75.58 7 76.51 7 79.43 11.67 79.43 11.67 79.43 10.51 79.43 7 80.2 7 80.2 13 79.4 13 76.35 8.11 76.35 8.11 76.35 9.26 76.35 13z"/>
        <path fill="#FFF" fill-rule="nonzero" d="M68.14 21.75c-2.353.006-4.256 1.917-4.25 4.27.006 2.353 1.917 4.255 4.27 4.25 2.353-.006 4.256-1.917 4.25-4.27.016-1.136-.429-2.23-1.234-3.03-.805-.802-1.9-1.242-3.036-1.22zm0 6.83c-1.057.074-2.051-.506-2.508-1.462-.457-.955-.283-2.093.439-2.869.721-.776 1.844-1.031 2.83-.645.987.387 1.636 1.337 1.639 2.396.033.663-.204 1.31-.656 1.796-.452.486-1.08.769-1.744.784zm-9.32-6.83c-2.353.006-4.256 1.917-4.25 4.27.006 2.353 1.917 4.255 4.27 4.25 2.353-.006 4.256-1.917 4.25-4.27.016-1.136-.429-2.23-1.234-3.03-.805-.802-1.9-1.242-3.036-1.22zm0 6.83c-1.057.074-2.051-.506-2.508-1.462-.457-.955-.283-2.093.439-2.869.721-.776 1.844-1.031 2.83-.645.987.387 1.636 1.337 1.639 2.396.033.663-.204 1.31-.656 1.796-.452.486-1.08.769-1.744.784zm-11.08-5.52v1.8h4.32c-.068.848-.42 1.648-1 2.27-.876.893-2.09 1.373-3.34 1.32-2.651 0-4.8-2.149-4.8-4.8s2.149-4.8 4.8-4.8c1.22-.018 2.399.445 3.28 1.29l1.27-1.27c-1.204-1.19-2.837-1.847-4.53-1.82-2.421-.094-4.7 1.144-5.938 3.226-1.239 2.082-1.239 4.676 0 6.758 1.238 2.082 3.517 3.32 5.938 3.226 1.73.07 3.408-.604 4.61-1.85 1.05-1.154 1.61-2.67 1.56-4.23.004-.375-.027-.75-.09-1.12h-6.08zm45.31 1.4c-.534-1.57-1.982-2.649-3.64-2.71-1.106-.002-2.163.453-2.92 1.259-.758.805-1.15 1.888-1.08 2.991-.018 1.875 1.201 3.537 2.994 4.085 1.793.548 3.733-.15 4.766-1.715l-1.45-1c-.44.733-1.235 1.178-2.09 1.17-.887.037-1.706-.476-2.06-1.29l5.69-2.35-.21-.44zm-5.8 1.42c-.04-.627.172-1.245.592-1.713.42-.469 1.01-.749 1.638-.777.659-.04 1.277.318 1.57.91l-3.8 1.58zM82.63 30h1.87V17.5h-1.87V30zm-3.06-7.3h-.07c-.565-.644-1.383-1.009-2.24-1-2.27.11-4.054 1.982-4.054 4.255 0 2.273 1.784 4.145 4.054 4.255.858.017 1.68-.35 2.24-1h.07v.61c0 1.63-.87 2.5-2.27 2.5-.956-.021-1.806-.617-2.15-1.51l-1.62.67c.613 1.54 2.113 2.542 3.77 2.52 2.19 0 4-1.29 4-4.43V22h-1.73v.7zm-2.15 5.88c-1.36-.085-2.42-1.212-2.42-2.575 0-1.363 1.06-2.49 2.42-2.575.647.028 1.255.317 1.685.802.43.484.644 1.122.595 1.768.055.648-.157 1.29-.588 1.778-.43.487-1.042.777-1.692.802zm24.39-11.08h-4.48V30h1.87v-4.74h2.61c1.453.104 2.842-.611 3.6-1.855s.758-2.806 0-4.05c-.758-1.244-2.147-1.96-3.6-1.855zm0 6H99.2v-4.26h2.65c.765 0 1.471.408 1.853 1.07.383.662.383 1.478 0 2.14-.382.662-1.088 1.07-1.853 1.07l-.04-.02zm11.54-1.79c-1.392-.086-2.701.665-3.33 1.91l1.65.69c.34-.614 1.01-.97 1.71-.91.48-.056.961.083 1.338.386.376.302.614.744.662 1.224v.12c-.601-.316-1.27-.48-1.95-.48-1.78 0-3.6 1-3.6 2.82.036.782.387 1.515.973 2.034.586.518 1.357.776 2.137.716.955.053 1.865-.413 2.38-1.22h.06v1h1.8v-4.81c0-2.19-1.66-3.46-3.79-3.46l-.04-.02zm-.23 6.85c-.61 0-1.46-.31-1.46-1.06 0-1 1.06-1.34 2-1.34.594-.015 1.181.13 1.7.42-.13 1.123-1.07 1.977-2.2 2l-.04-.02zM123.74 22l-2.14 5.42h-.06L119.32 22h-2l3.33 7.58-1.9 4.21h1.95L125.82 22h-2.08zm-16.8 8h1.86V17.5h-1.86V30z"/>
        <path fill="url(#prefix__a)" fill-rule="nonzero" d="M10.44 7.54c-.33.39-.498.89-.47 1.4v22.12c-.034.51.135 1.014.47 1.4l.07.08L22.9 20.15v-.3L10.51 7.47l-.07.07z"/>
        <path fill="url(#prefix__b)" fill-rule="nonzero" d="M27 24.28l-4.1-4.13v-.3l4.1-4.13.09.06L32 18.56c1.4.79 1.4 2.09 0 2.89l-4.89 2.78-.11.05z"/>
        <path fill="url(#prefix__c)" fill-rule="nonzero" d="M27.12 24.22L22.9 20 10.44 32.46c.583.519 1.453.548 2.07.07l14.61-8.31"/>
        <path fill="url(#prefix__d)" fill-rule="nonzero" d="M27.12 15.78l-14.61-8.3c-.613-.485-1.486-.46-2.07.06L22.9 20l4.22-4.22z"/>
        <path fill="#000" fill-rule="nonzero" d="M27 24.13l-14.49 8.25c-.592.447-1.408.447-2 0l-.07.07.07.08c.592.447 1.408.447 2 0l14.61-8.31-.12-.09z" opacity=".2"/>
        <path fill="#000" fill-rule="nonzero" d="M10.44 32.32c-.321-.397-.479-.901-.44-1.41v.15c-.034.51.135 1.014.47 1.4l.07-.07-.1-.07zM32 21.3l-5 2.83.09.09L32 21.44c.59-.25.997-.802 1.06-1.44-.127.577-.52 1.06-1.06 1.3z" opacity=".12"/>
        <path fill="#FFF" fill-rule="nonzero" d="M12.51 7.62L32 18.7c.54.24.933.723 1.06 1.3-.063-.638-.47-1.19-1.06-1.44L12.51 7.48c-1.39-.8-2.54-.14-2.54 1.46v.15c.03-1.6 1.15-2.26 2.54-1.47z" opacity=".25"/>
    </g>
</svg>
