<?xml version="1.0" encoding="UTF-8"?>
<svg width="24px" height="24px" viewBox="0 0 24 24" version="1.1" xmlns="http://www.w3.org/2000/svg" xmlns:xlink="http://www.w3.org/1999/xlink">
    <!-- Generator: Sketch 63.1 (92452) - https://sketch.com -->
    <title>Icon/exercise/warm-up</title>
    <desc>Created with Sketch.</desc>
    <g id="Icon/exercise/warm-up" stroke="none" stroke-width="1" fill="none" fill-rule="evenodd">
        <path d="M11.8116492,6.24117485 C12.3978621,5.42475928 13.2909594,5.17905505 13.9472703,5.3452639 C14.7716231,5.55410768 15.1288813,6.70226728 14.8465555,7.65871405 C14.5749619,9.00445719 14.0954913,10.934193 14.310233,12.5898333 C14.3138104,12.6551812 14.3158409,12.7165832 14.3171945,12.7761566 C14.3258963,12.8358263 14.3308274,12.8966508 14.3303439,12.958534 L14.3303439,12.958534 L14.2660471,21.6847394 C14.2609227,22.3461102 13.7208295,22.8789986 13.0574604,22.8789024 L13.0574604,22.8789024 C12.3810386,22.8738016 11.8437493,22.331289 11.848777,21.6669348 L11.848777,21.6669348 L11.8897723,16.1155398 C11.8800069,16.1220843 11.8703382,16.1284362 11.8605728,16.1348844 C11.3611848,16.4588328 10.7366839,16.7315809 9.99780231,16.7337944 C9.57740751,16.7351418 9.20197214,16.5838504 8.93115203,16.4015692 C8.65598101,16.2173632 8.4584496,16.0049585 8.29137458,15.7909177 C7.96292906,15.3613924 7.74654369,14.9042459 7.5659325,14.4662514 C7.2573078,13.7040558 7.08474277,12.9971238 7.04014082,12.8079934 L7.02883657,12.7599881 C6.88409622,12.1114175 7.29482233,11.4687176 7.94649228,11.3246442 C8.06967143,11.2973117 8.19265722,11.2899973 8.31206558,11.3001027 C8.26043476,11.656292 8.22446722,12.0256664 8.20774038,12.4106319 C8.19642801,12.6675001 8.28634686,12.9133968 8.46086678,13.1027999 C8.63548338,13.2923954 8.87362331,13.4028805 9.13351779,13.4141407 C9.14744071,13.4147182 9.16107357,13.4151031 9.17451305,13.4151031 C9.36527638,13.4151031 9.54298696,13.3599568 9.6929484,13.2651591 C9.78228713,13.5141355 9.8869024,13.7699451 9.99596526,13.9793663 C10.0612289,14.1091959 10.1314237,14.2193923 10.1861485,14.2949418 C10.2778077,14.2659731 10.3889977,14.2154464 10.516431,14.1345074 C10.7481896,13.9893754 11.010598,13.7532953 11.2416797,13.4961384 C11.2695256,13.4655336 11.296888,13.4346401 11.323767,13.4036504 C11.1120226,13.1530379 10.9461078,12.8055103 10.8546419,12.3241109 C10.740648,11.3049148 10.7156061,10.4850345 10.7916021,9.69575898 C10.7940192,9.69113939 10.7961463,9.68594236 10.7985635,9.68122653 C11.2095797,8.89762926 11.7761651,8.35627153 12.5293564,8.02674107 C12.817,7.90297466 13.0691595,7.84205387 13.2300466,7.81298897 C13.3165814,7.79730163 13.381555,7.78940984 13.4210033,7.78565642 L13.4210033,7.78565642 L13.4569708,7.7825767 C13.9872987,7.76708184 14.4077902,7.32600762 14.3948341,6.79706503 C14.3819747,6.27947892 13.9485272,5.85832667 13.4287382,5.85832667 L13.4287382,5.85832667 L13.4044698,5.85851915 L13.3915138,5.8590966 C13.1698106,5.86997187 12.5564287,5.9293528 11.8116492,6.24117485 Z M13.4092075,6.05119438 L13.5144811,6.05562644 C13.8931034,6.09728464 14.1919849,6.41239628 14.2015569,6.80206958 C14.2119024,7.22678276 13.874465,7.57979612 13.4477856,7.59038268 L13.4477856,7.59038268 L13.430672,7.59175412 L13.430672,7.59175412 L13.4027295,7.59423233 C13.3585435,7.59846695 13.2871886,7.60703243 13.1955293,7.62368219 C13.0121142,7.65698171 12.7477721,7.72329201 12.4526836,7.85023439 C11.940823,8.07409182 11.344458,8.46117463 10.8509678,9.21233855 C10.773715,9.33004175 10.6986859,9.45582923 10.6271376,9.5922995 C10.2762607,10.2664703 10.0034102,11.1938522 9.94675161,12.4859889 C9.93601936,12.7299608 9.81177665,12.9419805 9.62749135,13.0751786 C9.49957453,13.1676665 9.34313507,13.2225241 9.17451305,13.2225241 C9.16310399,13.2225241 9.15159825,13.2222354 9.1400925,13.2217542 C8.71321968,13.2031796 8.3822603,12.8438143 8.40101756,12.4190049 C8.41764772,12.0357717 8.4517782,11.6742891 8.50108854,11.3326323 C8.64138129,10.359247 8.90630349,9.54995329 9.25369965,8.88338554 C9.72195448,7.98266252 10.3396873,7.3508379 10.9498786,6.9295894 C11.1812504,6.77030993 11.4100117,6.64009535 11.629201,6.53355615 C12.5714152,6.07563969 13.3400763,6.05523652 13.4092075,6.05119438 L13.4092075,6.05119438 Z M15.1189178,1.0031621 C16.3184936,0.939135072 17.3426047,1.85515492 17.4063338,3.04914969 C17.4700629,4.24314446 16.5492773,5.26297263 15.3497014,5.32699966 C14.1501256,5.3910267 13.1260145,4.47500685 13.0622854,3.28101208 C12.9985562,2.0870173 13.9193419,1.06718913 15.1189178,1.0031621 Z" id="Combined-Shape" fill="#4A4A4A" fill-rule="nonzero"></path>
    </g>
</svg>